<svg id="Layer_1" data-name="Layer 1" xmlns="http://www.w3.org/2000/svg" viewBox="0 0 82 82"><defs><style>.cls-1{fill:#efe0da;}.cls-2{fill:#fff;}.cls-3{fill:#444c57;}.cls-4{fill:#d4b8ab;}.cls-5{fill:#63768a;}</style></defs><path class="cls-1" d="M80.78,21.16a32.59,32.59,0,0,0-1-5.13,27.11,27.11,0,0,0-2.43-5.57,19.23,19.23,0,0,0-5-5.63,19.59,19.59,0,0,0-8-3.65,27.74,27.74,0,0,0-5.3-.66L57.6.5a44.24,44.24,0,0,0-8.5.82,49.26,49.26,0,0,0-8.69,2.55,65,65,0,0,0-25.67,18A40.24,40.24,0,0,0,10,28.68,53.75,53.75,0,0,0,3.7,41.26,46.22,46.22,0,0,0,1,55.84a37.05,37.05,0,0,0,.21,4.69,31.49,31.49,0,0,0,1,5.14,26.58,26.58,0,0,0,2.35,5.6A19.14,19.14,0,0,0,9.38,77a19.45,19.45,0,0,0,7.95,3.76,27.6,27.6,0,0,0,5.29.72c.49,0,1,0,1.45,0a44.1,44.1,0,0,0,8.51-.7l.2,0a19.38,19.38,0,0,0,2.84-.47,24.32,24.32,0,0,0,3.72-1.14c.45-.18.89-.38,1.34-.57l.62-.22.61-.25.15,0a1.31,1.31,0,0,1,.27,0c.12,0,.26.22.41.54s.26.36.39.36h.22a1.35,1.35,0,0,0,.7-.21,1,1,0,0,0,.58-.92,2,2,0,0,1,0-.23,1.38,1.38,0,0,1,.25-.8,65,65,0,0,0,10.7-5.94A65.55,65.55,0,0,0,67.2,60.66a39.49,39.49,0,0,0,5.86-8.55,53.09,53.09,0,0,0,5.43-11.64,46.75,46.75,0,0,0,2.05-8.37,50.28,50.28,0,0,0,.51-6.25A41.23,41.23,0,0,0,80.78,21.16Z"/><path class="cls-2" d="M19,32.89H61a0,0,0,0,1,0,0v27.5a2.5,2.5,0,0,1-2.5,2.5h-37a2.5,2.5,0,0,1-2.5-2.5V32.89A0,0,0,0,1,19,32.89Z"/><path class="cls-3" d="M61,35.89H19V25.39a2.51,2.51,0,0,1,2.51-2.5h37a2.5,2.5,0,0,1,2.5,2.5Z"/><rect class="cls-4" x="23.03" y="40.89" width="6.18" height="6.04" rx="1"/><rect class="cls-4" x="32.3" y="40.89" width="6.18" height="6.04" rx="1"/><rect class="cls-4" x="41.58" y="40.89" width="6.18" height="6.04" rx="1"/><rect class="cls-4" x="50.85" y="40.89" width="6.18" height="6.04" rx="1"/><rect class="cls-4" x="23.03" y="50.89" width="6.18" height="6.04" rx="1"/><rect class="cls-4" x="32.3" y="50.89" width="6.18" height="6.04" rx="1"/><rect class="cls-4" x="41.58" y="50.89" width="6.18" height="6.04" rx="1"/><rect class="cls-5" x="50.85" y="50.89" width="6.18" height="6.04" rx="0.96"/><circle class="cls-4" cx="29.53" cy="26.39" r="3.5"/><circle class="cls-4" cx="50.53" cy="26.39" r="3.5"/><rect class="cls-2" x="27.05" y="18.05" width="5" height="10" rx="1.3"/><rect class="cls-2" x="48.05" y="18.05" width="5" height="10" rx="1.3"/></svg>