<svg id="Layer_1" data-name="Layer 1" xmlns="http://www.w3.org/2000/svg" viewBox="0 0 82 82"><path d="M74,9.63H64.22V2.41A1.41,1.41,0,0,0,62.81,1h-6.1A1.41,1.41,0,0,0,55.3,2.41V9.63H26.76V2.41A1.42,1.42,0,0,0,25.34,1H19.25a1.42,1.42,0,0,0-1.42,1.41V9.63H8A4.48,4.48,0,0,0,3.53,14.1V78.29A2.72,2.72,0,0,0,6.24,81H75.76a2.72,2.72,0,0,0,2.71-2.71V14.1A4.48,4.48,0,0,0,74,9.63ZM10.67,42.83a1.08,1.08,0,0,1,1.08-1.08h8.87a1.08,1.08,0,0,1,1.08,1.08v8.61a1.08,1.08,0,0,1-1.08,1.08H11.75a1.08,1.08,0,0,1-1.08-1.08Zm11,26.45a1.08,1.08,0,0,1-1.08,1.08H11.75a1.08,1.08,0,0,1-1.08-1.08V60.67a1.08,1.08,0,0,1,1.08-1.08h8.87a1.08,1.08,0,0,1,1.08,1.08Zm.57-47.16a6.24,6.24,0,0,1-4.44-10.64v5.95a1.42,1.42,0,0,0,1.42,1.41h6.09a1.42,1.42,0,0,0,1.42-1.41V11.54a6.24,6.24,0,0,1-4.49,10.58Zm4.94,20.72a1.09,1.09,0,0,1,1.09-1.09h8.85a1.09,1.09,0,0,1,1.09,1.09v8.59a1.09,1.09,0,0,1-1.09,1.09H28.3a1.09,1.09,0,0,1-1.09-1.09Zm11,26.44a1.08,1.08,0,0,1-1.08,1.08H28.29a1.08,1.08,0,0,1-1.08-1.08V60.67a1.08,1.08,0,0,1,1.08-1.08h8.87a1.08,1.08,0,0,1,1.08,1.08Zm5.51-26.44a1.09,1.09,0,0,1,1.09-1.09H53.7a1.09,1.09,0,0,1,1.09,1.09v8.59a1.09,1.09,0,0,1-1.09,1.09H44.84a1.09,1.09,0,0,1-1.09-1.09Zm11,26.43a1.09,1.09,0,0,1-1.09,1.09H44.84a1.09,1.09,0,0,1-1.09-1.09V60.68a1.09,1.09,0,0,1,1.09-1.09H53.7a1.09,1.09,0,0,1,1.09,1.09Zm-1.3-53.39a6.22,6.22,0,0,1,1.81-4.4v5.95a1.41,1.41,0,0,0,1.41,1.41h6.1a1.41,1.41,0,0,0,1.41-1.41V11.54a6.24,6.24,0,1,1-10.73,4.34ZM60.3,42.83a1.08,1.08,0,0,1,1.08-1.08h8.87a1.08,1.08,0,0,1,1.08,1.08v8.61a1.08,1.08,0,0,1-1.08,1.08H61.38a1.08,1.08,0,0,1-1.08-1.08Zm11,26.49a1,1,0,0,1-1,1h-9a1,1,0,0,1-1-1V60.63a1,1,0,0,1,1-1h9a1,1,0,0,1,1,1Z"/></svg>